HIERARCHY
ROOT Hips
{
	OFFSET 0.000000 0.000000 0.000000 
	CHANNELS 6 Xposition Yposition Zposition Yrotation Zrotation Xrotation 
	JOINT Lumbar
	{
		OFFSET 0.000000 0.000000 0.000000 
		CHANNELS 3 Zrotation Xrotation Yrotation
		JOINT Neck
		{
			OFFSET 0.000000 0.445665 0.000000 
			CHANNELS 3 Zrotation Xrotation Yrotation
			End Site
			{
				OFFSET 0.000000 0.227535 0.000000 
			}
		}
		JOINT RightShoulder
		{
			OFFSET 0.019635 0.377685 0.194865 
			CHANNELS 3 Zrotation Xrotation Yrotation
			JOINT RightElbow
			{
				OFFSET 0.000000 -0.243375 0.000000 
				CHANNELS 2 Zrotation Yrotation
				JOINT RightWrist
				{
					OFFSET 0.000000 -0.264825 0.000000 
					CHANNELS 2 Zrotation Xrotation
					End Site
					{
						OFFSET 0.006600 -0.176220 0.000990 
					}
				}
			}
		}
		JOINT LeftShoulder
		{
			OFFSET 0.019635 0.377685 -0.194865 
			CHANNELS 3 Zrotation Xrotation Yrotation
			JOINT LeftElbow
			{
				OFFSET 0.000000 -0.243375 0.000000 
				CHANNELS 2 Zrotation Yrotation
				JOINT LeftWrist
				{
					OFFSET 0.000000 -0.264825 0.000000 
					CHANNELS 2 Zrotation Xrotation
					End Site
					{
						OFFSET 0.006600 -0.176220 -0.000990 
					}
				}
			}
		}
	}
	JOINT RightHip
	{
		OFFSET 0.052140 -0.069960 0.075570 
		CHANNELS 3 Zrotation Xrotation Yrotation
		JOINT RightKnee
		{
			OFFSET 0.000000 -0.402270 0.000000 
			CHANNELS 1 Zrotation
			JOINT RightAnkle
			{
				OFFSET 0.000000 -0.404085 0.000000 
				CHANNELS 3 Zrotation Xrotation Yrotation
				End Site
				{
					OFFSET 0.204105 -0.089430 0.008415 
				}
			}
		}
	}
	JOINT LeftHip
	{
		OFFSET 0.052140 -0.069960 -0.075570 
		CHANNELS 3 Zrotation Xrotation Yrotation
		JOINT LeftKnee
		{
			OFFSET 0.000000 -0.402270 0.000000 
			CHANNELS 1 Zrotation
			JOINT LeftAnkle
			{
				OFFSET 0.000000 -0.404085 0.000000 
				CHANNELS 3 Zrotation Xrotation Yrotation
				End Site
				{
					OFFSET 0.204105 -0.089430 -0.008415 
				}
			}
		}
	}
}
MOTION
Frames: 25
Frame Time: 0.02
0.00015 8e-05 -4e-05 175.23885 -44.80521 1.29372 57.46696 -0.14819 0.41212 -10.8822 -0.61052 0.77408 133.14604 -84.92897 -66.21976 9.20147 88.02286 -0.48194 -7.0908 169.85873 81.9494 62.006 7.66159 -73.88376 1.79205 9.16701 49.7344 -0.19272 -3.5948 -19.28973 -8.69539 -5.66265 -3.76375 53.95086 0.58396 2.02546 -24.56729 -8.94611 5.34004 3.66017
9e-05 7e-05 -0.00012 175.31188 -44.80191 1.30924 57.46916 -0.1541 0.39141 -10.92409 -0.60245 0.77572 133.45319 -84.92609 -66.01963 9.19068 88.03362 -0.45695 -7.0695 169.85714 81.92223 62.52037 7.64317 -73.87918 1.85789 9.1012 49.71088 -0.27585 -4.07298 -19.28488 -8.64046 -5.62684 -3.74145 53.94531 0.64606 2.32725 -24.56725 -8.91824 5.32076 3.64157
2e-05 6e-05 -0.00021 175.38473 -44.79859 1.32473 57.47136 -0.15998 0.37079 -10.9659 -0.59441 0.77735 133.75949 -84.92321 -65.82002 9.17991 88.04438 -0.43203 -7.04829 169.85555 81.89517 63.03369 7.62472 -73.8746 1.92362 9.03553 49.6874 -0.35871 -4.54961 -19.28003 -8.58571 -5.59114 -3.71923 53.93974 0.7081 2.6287 -24.56721 -8.89037 5.30148 3.62299
-5e-05 5e-05 -0.00029 175.45754 -44.7953 1.3402 57.47355 -0.16587 0.35014 -11.00767 -0.58636 0.77899 134.06578 -84.92034 -65.62043 9.16915 88.05512 -0.40711 -7.02706 169.85398 81.86808 63.54658 7.60634 -73.87003 1.98927 8.9699 49.66396 -0.44157 -5.0263 -19.27519 -8.53095 -5.55543 -3.697 53.9342 0.77003 2.92967 -24.56718 -8.86256 5.28225 3.60443
-0.00012 4e-05 -0.00037 175.53051 -44.79202 1.3557 57.47575 -0.17178 0.32941 -11.04952 -0.57827 0.78063 134.3727 -84.91744 -65.42051 9.15838 88.06583 -0.38213 -7.00576 169.85239 81.84087 64.06029 7.588 -73.86547 2.05502 8.90417 49.64048 -0.52471 -5.50459 -19.27035 -8.47602 -5.51962 -3.67469 53.92871 0.83199 3.23073 -24.56714 -8.83478 5.26306 3.58588
-0.00018 3e-05 -0.00046 175.60309 -44.78862 1.37117 57.47792 -0.17761 0.30901 -11.09122 -0.57036 0.78226 134.67758 -84.91462 -65.22163 9.1476 88.0767 -0.35734 -6.98473 169.85078 81.81414 64.57274 7.56934 -73.86086 2.12068 8.83863 49.617 -0.60699 -5.9777 -19.2655 -8.42165 -5.48416 -3.65265 53.92298 0.89417 3.53297 -24.5671 -8.80676 5.2436 3.56724
-0.00025 2e-05 -0.00054 175.67638 -44.78548 1.38668 57.48016 -0.18359 0.28796 -11.13317 -0.56209 0.7839 134.98668 -84.91165 -65.0205 9.13685 88.08726 -0.33217 -6.96317 169.84927 81.78644 65.08723 7.55134 -73.85636 2.18645 8.77276 49.59356 -0.69088 -6.46064 -19.26067 -8.36621 -5.44802 -3.63011 53.91771 0.95584 3.83259 -24.56706 -8.77922 5.22467 3.54877
-0.00032 1e-05 -0.00062 175.749 -44.7821 1.40215 57.48233 -0.18943 0.26752 -11.17489 -0.55415 0.78554 135.29109 -84.90883 -64.82213 9.12608 88.09805 -0.30738 -6.94209 169.84756 81.75971 65.59969 7.53276 -73.85175 2.25209 8.70722 49.57009 -0.77331 -6.93464 -19.25582 -8.31175 -5.4125 -3.60802 53.91204 1.01795 4.13444 -24.56703 -8.75127 5.20529 3.53017
-0.00038 0 -0.0007 175.82091 -44.77841 1.41758 57.48442 -0.19512 0.24779 -11.21638 -0.54664 0.78715 135.59307 -84.90614 -64.62433 9.11526 88.10937 -0.28296 -6.92162 169.84605 81.73385 66.11058 7.51334 -73.84702 2.31773 8.64193 49.54654 -0.85391 -7.39739 -19.25092 -8.2585 -5.37774 -3.58648 53.9058 1.0808 4.43998 -24.567 -8.72267 5.18523 3.51132
-0.00045 -1e-05 -0.00079 175.89726 -44.77646 1.43329 57.48699 -0.20175 0.22383 -11.25932 -0.53671 0.78886 135.91896 -84.90253 -64.41481 9.10466 88.11839 -0.25613 -6.89774 169.84472 81.70203 66.63328 7.49833 -73.843 2.38387 8.57476 49.52331 -0.9449 -7.92394 -19.24627 -8.19833 -5.33864 -3.56178 53.90261 1.14001 4.7272 -24.56693 -8.69737 5.1687 3.49364
-0.00052 -2e-05 -0.00087 175.96398 -44.77087 1.44837 57.48851 -0.20634 0.20892 -11.29912 -0.53186 0.79038 136.18805 -84.90098 -64.23543 9.09362 88.13178 -0.23454 -6.88098 169.84215 81.68338 67.12921 7.47429 -73.8375 2.44861 8.51185 49.49949 -1.01407 -8.31646 -19.24112 -8.15272 -5.30869 -3.54373 53.8931 1.20647 5.05115 -24.56696 -8.66537 5.14494 3.47364
-0.00059 -2e-05 -0.0009 176.00612 -44.75496 1.46202 57.48746 -0.20573 0.21811 -11.33094 -0.54114 0.79124 136.34702 -84.90406 -64.09845 9.08094 88.16116 -0.22647 -6.88466 169.84034 81.69654 67.56736 7.42304 -73.82766 2.5121 8.45813 49.47318 -1.02176 -8.33275 -19.23436 -8.14766 -5.30421 -3.54441 53.86513 1.29655 5.49294 -24.56719 -8.61264 5.09928 3.44614
-0.00065 -3e-05 -0.00093 176.03821 -44.73543 1.47498 57.48526 -0.20301 0.23655 -11.35947 -0.55545 0.79193 136.43704 -84.90935 -64.00157 9.06785 88.19416 -0.22395 -6.89534 169.8344 81.72389 67.97642 7.36316 -73.81642 2.57343 8.4091 49.44644 -1.00782 -8.2159 -19.22718 -8.15709 -5.30885 -3.55168 53.831 1.39319 5.96842 -24.56754 -8.55362 5.04674 3.41652
-0.00071 -4e-05 -0.00095 176.07376 -44.71778 1.48809 57.48341 -0.20103 0.25122 -11.38913 -0.56732 0.79279 136.53311 -84.91437 -63.9096 9.05524 88.2229 -0.21933 -6.90224 169.83039 81.74733 68.38768 7.30885 -73.80591 2.63445 8.35956 49.42045 -1.00485 -8.16571 -19.22035 -8.15945 -5.30908 -3.55561 53.80041 1.4844 6.41747 -24.56789 -8.499 4.99869 3.3886
-0.00079 -5e-05 -0.00099 176.11412 -44.69922 1.50194 57.48241 -0.19996 0.26399 -11.42045 -0.57991 0.79326 136.74992 -84.91652 -63.71029 9.04152 88.26272 -0.21248 -6.91164 169.83496 81.75933 68.84261 7.24765 -73.79475 2.70213 8.3033 49.3921 -0.99712 -8.08988 -19.21278 -8.16386 -5.31048 -3.56099 53.76671 1.58603 6.9138 -24.56802 -8.43784 4.94486 3.35756
-0.00083 -6e-05 -0.001 176.14186 -44.68159 1.51403 57.47919 -0.19648 0.28301 -11.44736 -0.59212 0.7945 136.68122 -84.9249 -63.75632 9.02987 88.28028 -0.21219 -6.91756 169.80965 81.79944 69.20319 7.19865 -73.78491 2.75391 8.26201 49.36858 -0.99404 -8.03511 -19.20671 -8.16747 -5.3116 -3.56494 53.73799 1.66745 7.31929 -24.56865 -8.38882 4.90144 3.33254
-0.00077 -8e-05 -0.00096 176.13927 -44.66839 1.52194 57.47148 -0.18714 0.31623 -11.46416 -0.60257 0.79805 135.9796 -84.95135 -64.36139 9.02409 88.23586 -0.22717 -6.91129 169.77074 81.90566 69.28413 7.18578 -73.77647 2.76944 8.2609 49.35847 -1.01056 -8.07844 -19.20454 -8.16505 -5.30965 -3.56315 53.72499 1.69186 7.46887 -24.57054 -8.37486 4.88847 3.32454
-0.00066 -0.0001 -0.00089 176.12396 -44.65605 1.52803 57.46119 -0.17543 0.35556 -11.47617 -0.61237 0.80236 134.95856 -84.98306 -65.22952 9.01968 88.16881 -0.25143 -6.9013 169.67102 82.04099 69.2787 7.18507 -73.76976 2.76373 8.2739 49.35329 -1.0323 -8.1464 -19.204 -8.16136 -5.30711 -3.55973 53.71717 1.69565 7.52549 -24.57295 -8.37333 4.8862 3.3227
-0.00057 -0.00012 -0.00084 176.11307 -44.64269 1.53457 57.45135 -0.16458 0.39264 -11.48985 -0.62215 0.80624 134.00384 -85.0123 -66.05193 9.01545 88.11199 -0.26909 -6.89372 169.57773 82.16847 69.32664 7.17901 -73.76412 2.76812 8.28145 49.34583 -1.05065 -8.19805 -19.20293 -8.15844 -5.30491 -3.55718 53.70662 1.70856 7.62232 -24.57515 -8.36611 4.87901 3.31814
-0.0005 -0.00014 -0.00079 176.10745 -44.63191 1.54258 57.44507 -0.15445 0.42791 -11.50655 -0.63346 0.81051 133.41496 -85.04473 -66.5753 9.01068 88.05578 -0.28633 -6.88388 169.64854 82.27446 69.30302 7.17333 -73.75113 2.7869 8.28832 49.33836 -1.07233 -8.26588 -19.20083 -8.15528 -5.30276 -3.55433 53.69728 1.72263 7.72804 -24.57719 -8.35886 4.87186 3.31321
-0.00037 -0.00016 -0.00072 176.08812 -44.61593 1.54721 57.43009 -0.14241 0.46816 -11.51462 -0.64133 0.81414 131.94476 -85.06826 -67.76937 9.0038 87.99255 -0.31996 -6.8771 169.26946 82.43105 69.42205 7.16808 -73.75321 2.75016 8.29586 49.3323 -1.08886 -8.30854 -19.20144 -8.15206 -5.30022 -3.55162 53.68691 1.72946 7.79385 -24.57976 -8.35468 4.86721 3.3105
-7e-05 -0.0002 -0.0006 176.03275 -44.58625 1.54203 57.39741 -0.12454 0.52173 -11.51008 -0.63995 0.8159 128.51526 -85.09231 -70.87167 9.02238 87.91789 -0.27635 -6.88749 168.48752 82.72363 69.83309 7.17681 -73.80017 2.7494 8.3371 49.32742 -1.08778 -8.26808 -19.20781 -8.14937 -5.29697 -3.54992 53.67131 1.71997 7.76255 -24.58315 -8.35633 4.86725 3.31282
0.0003 -0.00024 -0.00047 175.96433 -44.55122 1.53366 57.35495 -0.10508 0.57986 -11.4948 -0.63503 0.81697 124.14846 -85.10009 -74.61661 9.03371 87.83628 -0.26724 -6.90092 167.11736 83.06242 70.40985 7.18306 -73.86012 2.66509 8.37246 49.32426 -1.08183 -8.20343 -19.21716 -8.14653 -5.29325 -3.54836 53.6549 1.70418 7.69617 -24.5872 -8.36058 4.86936 3.31709
0.00066 -0.00028 -0.00034 175.90274 -44.518 1.52734 57.3133 -0.08705 0.63518 -11.47833 -0.6317 0.81832 119.93571 -85.10075 -77.9888 9.02657 87.75645 -0.32638 -6.90615 165.45498 83.3816 70.99659 7.1796 -73.91354 2.4907 8.38666 49.32106 -1.07962 -8.15565 -19.22593 -8.14342 -5.28952 -3.54654 53.63941 1.69205 7.65169 -24.59123 -8.36346 4.87035 3.32024
0.00094 -0.00031 -0.00022 175.83679 -44.48716 1.51844 57.28711 -0.06581 0.69384 -11.4888 -0.6286 0.81988 116.8093 -85.17182 -81.71321 9.10798 87.6824 -0.04836 -6.93465 166.08546 83.70831 71.23642 7.22057 -73.97558 2.83161 8.49974 49.31412 -1.07118 -8.08427 -19.23125 -8.14165 -5.2867 -3.54547 53.62108 1.67559 7.5778 -24.5939 -8.36769 4.87263 3.32468
